<svg width="61" height="60" viewBox="0 0 61 60" fill="none" xmlns="http://www.w3.org/2000/svg">
<path opacity="0.3" d="M40.499 21.1737C39.3574 21.1737 37.999 20.2546 37.999 19.1222C37.999 14.5623 34.9816 11.2495 30.3875 11.2495C28.2725 11.2495 27.0471 11.6956 25.4671 13.2465C23.8842 14.803 23.0073 16.5393 22.999 18.7495V19.1222C22.999 19.9995 21.6407 21.2495 20.499 21.2495C19.3574 21.2495 17.8535 20.6697 17.8599 19.1222C17.8737 15.7604 19.1863 12.6584 21.5523 10.3361C23.9155 8.00828 26.9709 6.84027 30.3875 6.75C37.2539 6.75 42.849 12.3001 42.849 19.1222C42.849 20.2546 41.6407 21.1737 40.499 21.1737Z" fill="#1AA260"/>
<path fill-rule="evenodd" clip-rule="evenodd" d="M15.25 22.8364C10.4175 22.8364 6.5 26.7539 6.5 31.5864V44.9614C6.5 49.7939 10.4175 53.7114 15.25 53.7114H45.25C50.0825 53.7114 54 49.7939 54 44.9614V31.5864C54 26.7539 50.0825 22.8364 45.25 22.8364H15.25ZM30.499 47.5001C36.0219 47.5001 40.499 43.023 40.499 37.5001C40.499 31.9773 36.0219 27.5001 30.499 27.5001C24.9762 27.5001 20.499 31.9773 20.499 37.5001C20.499 43.023 24.9762 47.5001 30.499 47.5001Z" fill="#1AA260"/>
<circle cx="30.499" cy="37.5" r="5" fill="#1AA260"/>
</svg>
