<svg width="311" height="311" viewBox="0 0 311 311" fill="none" xmlns="http://www.w3.org/2000/svg">
<path fill-rule="evenodd" clip-rule="evenodd" d="M206.297 165.593V143.268C206.297 139.158 202.954 135.827 198.83 135.827H191.364C187.24 135.827 183.897 139.158 183.897 143.268V165.593H142.832V39.0873C142.832 30.8677 149.517 24.2043 157.765 24.2043H232.429C240.677 24.2043 247.362 30.8677 247.362 39.0873V165.593H206.297ZM172.698 39.0873C168.574 39.0873 165.231 42.419 165.231 46.5288V53.9703C165.231 58.0802 168.574 61.4118 172.698 61.4118H180.164C184.288 61.4118 187.631 58.0802 187.631 53.9703V46.5288C187.631 42.419 184.288 39.0873 180.164 39.0873H172.698ZM210.03 39.0873C205.906 39.0873 202.564 42.419 202.564 46.5288V53.9703C202.564 58.0802 205.906 61.4118 210.03 61.4118H217.496C221.62 61.4118 224.963 58.0802 224.963 53.9703V46.5288C224.963 42.419 221.62 39.0873 217.496 39.0873H210.03ZM172.698 68.8533C168.574 68.8533 165.231 72.185 165.231 76.2948V83.7363C165.231 87.8461 168.574 91.1778 172.698 91.1778H180.164C184.288 91.1778 187.631 87.8461 187.631 83.7363V76.2948C187.631 72.185 184.288 68.8533 180.164 68.8533H172.698ZM172.698 98.6193C168.574 98.6193 165.231 101.951 165.231 106.061V113.502C165.231 117.612 168.574 120.944 172.698 120.944H180.164C184.288 120.944 187.631 117.612 187.631 113.502V106.061C187.631 101.951 184.288 98.6193 180.164 98.6193H172.698ZM210.03 98.6193C205.906 98.6193 202.564 101.951 202.564 106.061V113.502C202.564 117.612 205.906 120.944 210.03 120.944H217.496C221.62 120.944 224.963 117.612 224.963 113.502V106.061C224.963 101.951 221.62 98.6193 217.496 98.6193H210.03Z" fill="#E1E4EB"/>
<path d="M217.497 68.8533H210.03C205.907 68.8533 202.564 72.1849 202.564 76.2948V83.7363C202.564 87.8461 205.907 91.1778 210.03 91.1778H217.497C221.62 91.1778 224.963 87.8461 224.963 83.7363V76.2948C224.963 72.1849 221.62 68.8533 217.497 68.8533Z" fill="white"/>
<path fill-rule="evenodd" clip-rule="evenodd" d="M135.365 165.593H254.829C258.952 165.593 262.295 168.924 262.295 173.034V176.011C262.295 178.477 260.29 180.476 257.815 180.476H132.379C129.905 180.476 127.899 178.477 127.899 176.011V173.034C127.899 168.924 131.242 165.593 135.365 165.593Z" fill="#E1E4EB"/>
<path d="M138.898 99.6579L127.272 99.9081L121.381 100.015C119.409 100.015 117.428 100.015 115.456 100.015H115.07V99.6132V89.6136V89.1667H115.499L127.22 89.2293C131.122 89.2293 135.031 89.3276 138.941 89.3723H139.173V89.6046C139.173 91.3025 139.096 92.9915 139.061 94.6625L138.898 99.6579ZM138.898 99.6579L138.778 94.6357C138.778 92.9736 138.684 91.3293 138.667 89.6851L138.898 89.9263C134.989 89.98 131.079 90.0693 127.177 90.0782L115.456 90.1319L115.885 89.6851L115.868 99.6579L115.482 99.2647C117.411 99.2647 119.34 99.2647 121.278 99.2647L127.1 99.363L138.898 99.6579Z" fill="#E1E4EB"/>
<path d="M51.8698 234.523L40.243 234.756L34.3524 234.848C32.3803 234.848 30.3996 234.848 28.4275 234.848H28.0417V234.473L27.9902 225.191V224.774H28.419L40.1401 224.824C44.0414 224.824 47.9513 224.924 51.8612 224.966H52.0927V225.191C52.0927 226.776 52.0156 228.343 51.9813 229.903L51.8698 234.523ZM51.8698 234.523L51.7498 229.803C51.7498 228.252 51.6554 226.717 51.6383 225.191L51.8698 225.416C47.9599 225.416 44.05 225.55 40.1487 225.55L28.4275 225.608L28.8563 225.191L28.8477 234.523L28.4618 234.147C30.391 234.147 32.3203 234.147 34.2581 234.189L40.0801 234.289L51.8698 234.523Z" fill="#E1E4EB"/>
<path d="M38.6435 246.853L27.0166 247.103L21.1261 247.202C19.154 247.202 17.1733 247.202 15.2012 247.246H14.8153V246.844L14.7725 236.845V236.398H15.2012L26.9223 236.451C30.8236 236.451 34.7336 236.559 38.6435 236.603H38.875V236.845C38.875 238.542 38.7978 240.222 38.7635 241.893L38.6435 246.853ZM38.6435 246.853L38.5234 241.795C38.5234 240.133 38.4291 238.489 38.4119 236.853L38.6435 237.095C34.7336 237.139 30.8236 237.238 26.9223 237.238L15.2012 237.3L15.6299 236.853L15.587 246.853L15.2012 246.451C17.1304 246.451 19.0596 246.451 20.9974 246.496L26.8194 246.603L38.6435 246.853Z" fill="#E1E4EB"/>
<path d="M307.113 276.305C307.113 286.367 239.232 294.515 155.496 294.515C71.7603 294.515 3.8877 286.367 3.8877 276.305C3.8877 266.243 71.768 258.095 155.489 258.095C239.21 258.095 307.113 266.243 307.113 276.305Z" fill="#E1E4EB"/>
<path d="M67.0825 266.94H69.0627L83.1291 192.31L84.9487 181.467H79.1153L77.8003 192.31L67.0825 266.94Z" fill="#E1E4EB"/>
<path d="M79.1158 181.467L77.8008 192.31H83.1296L84.9492 181.467H79.1158Z" fill="#A8ACB5"/>
<path d="M29.7114 270.132H31.6916L46.2633 192.31L48.0829 181.467H42.2494L40.9344 192.31L29.7114 270.132Z" fill="#E1E4EB"/>
<path d="M40.9346 192.31H46.2634L48.083 181.467H42.2496L40.9346 192.31Z" fill="#A8ACB5"/>
<path d="M35.1387 186.557H125.201V177.101H91.4851L80.1547 127.846H38.5714L35.1387 186.557Z" fill="#E1E4EB"/>
<path d="M35.1387 186.557H40.047L43.2428 127.846H38.5714L35.1387 186.557Z" fill="#A8ACB5"/>
<path d="M50.3146 50.0966L38.6878 50.3301L32.7972 50.4218C30.8251 50.4218 28.8445 50.4218 26.8724 50.4218H26.4865V50.0466L26.4351 40.7651V40.3481H26.8638L38.5849 40.3982C42.4863 40.3982 46.3962 40.4983 50.3061 40.54H50.5376V40.7651C50.5376 42.3495 50.4604 43.9173 50.4261 45.4767L50.3146 50.0966ZM50.3146 50.0966L50.1946 45.3766C50.1946 43.8256 50.1003 42.2912 50.0831 40.7651L50.3146 40.9903C46.4047 40.9903 42.4948 41.1237 38.5935 41.1237L26.8724 41.1821L27.3011 40.7651L27.2925 50.0966L26.9066 49.7214C28.8359 49.7214 30.7651 49.7213 32.7029 49.763L38.5249 49.8631L50.3146 50.0966Z" fill="#E1E4EB"/>
<path d="M37.8661 62.4271L26.2393 62.6773L20.3487 62.7756C18.3766 62.7756 16.3959 62.7756 14.4238 62.8203H14.038V62.4181L13.9951 52.4185V51.9717H14.4238L26.145 52.0253C30.0463 52.0253 33.9562 52.1325 37.8661 52.1772H38.0976V52.4185C38.0976 54.1164 38.0204 55.7964 37.9861 57.4675L37.8661 62.4271ZM37.8661 62.4271L37.7461 57.3692C37.7461 55.707 37.6517 54.0628 37.6346 52.4274L37.8661 52.6687C33.9562 52.7134 30.0463 52.8117 26.145 52.8117L14.4238 52.8742L14.8526 52.4274L14.8097 62.4271L14.4238 62.0249C16.3531 62.0249 18.2823 62.0249 20.2201 62.0696L26.0421 62.1769L37.8661 62.4271Z" fill="#E1E4EB"/>
<path d="M34.7563 114.345L23.1294 114.596L17.2389 114.694C15.2668 114.694 13.2861 114.694 11.314 114.738H10.9281V114.336L10.8853 104.337V103.89H11.314L23.0351 103.944C26.9364 103.944 30.8463 104.051 34.7563 104.095H34.9878V104.337C34.9878 106.035 34.9106 107.715 34.8763 109.386L34.7563 114.345ZM34.7563 114.345L34.6362 109.287C34.6362 107.625 34.5419 105.981 34.5247 104.346L34.7563 104.587C30.8463 104.632 26.9364 104.73 23.0351 104.73L11.314 104.792L11.7427 104.346L11.6998 114.345L11.314 113.943C13.2432 113.943 15.1724 113.943 17.1102 113.988L22.9322 114.095L34.7563 114.345Z" fill="#E1E4EB"/>
<path d="M285.889 254.63L274.262 254.863L268.371 254.954C266.399 254.954 264.418 254.954 262.446 254.995H262.06V254.622L262.018 245.337V244.922H262.446L274.167 244.971C278.069 244.971 281.979 245.071 285.889 245.112H286.12V245.337C286.12 246.913 286.043 248.473 286.009 250.025L285.889 254.63ZM285.889 254.63L285.769 249.934C285.769 248.39 285.674 246.863 285.657 245.345L285.889 245.569C281.979 245.61 278.069 245.702 274.167 245.702L262.446 245.76L262.875 245.345L262.832 254.63L262.446 254.257C264.376 254.257 266.305 254.257 268.243 254.298L274.065 254.398L285.889 254.63Z" fill="#E1E4EB"/>
<path d="M267.229 205.851L255.602 206.085L249.711 206.177C247.739 206.177 245.758 206.177 243.786 206.177H243.401V205.801L243.358 196.521V196.103H243.786L255.508 196.153C259.409 196.153 263.319 196.254 267.229 196.295H267.46V196.521C267.46 198.109 267.383 199.681 267.349 201.244L267.229 205.851ZM267.229 205.851L267.109 201.119C267.066 199.564 267.014 198.026 266.997 196.496L267.229 196.722C263.319 196.722 259.409 196.855 255.508 196.855L243.786 196.914L244.215 196.496V205.851L243.829 205.474C245.758 205.474 247.688 205.474 249.626 205.474L255.447 205.575L267.229 205.851Z" fill="#E1E4EB"/>
<path d="M276.559 218.224L264.932 218.476L259.041 218.575C257.069 218.575 255.089 218.575 253.116 218.575H252.731V218.17L252.688 208.176V207.726H253.116L264.838 207.78C268.739 207.78 272.649 207.888 276.559 207.933H276.79V208.176C276.79 209.887 276.713 211.58 276.679 213.263L276.559 218.224ZM276.559 218.224L276.439 213.128C276.396 211.454 276.344 209.797 276.327 208.149L276.559 208.393C272.649 208.393 268.739 208.537 264.838 208.537L253.116 208.6L253.545 208.149V218.224L253.159 217.819C255.089 217.819 257.018 217.819 258.956 217.819L264.778 217.927L276.559 218.224Z" fill="#E1E4EB"/>
<path d="M103.777 87.4636C104.335 97.5672 104.747 107.996 103.777 118.048C102.996 125.893 99.6911 132.361 91.5021 134.303C83.9053 136.083 73.0896 135.946 66.6603 130.932C63.6731 128.588 62.6345 125.286 62.8319 121.59C63.1066 116.457 67.1925 88.2763 68.42 79.4987C69.1496 74.1432 69.8707 68.7192 71.5531 63.5519C75.0897 52.7039 80.5233 52.5072 81.2701 52.2847C81.9139 51.8741 85.9998 50.3256 91.8797 52.1992C93.4159 52.684 94.8322 53.4862 96.0361 54.5535C97.2401 55.6208 98.2047 56.9291 98.867 58.3931C103.065 67.0937 103.245 78.0101 103.777 87.4636Z" fill="#A8ACB5"/>
<path d="M79.5103 54.0731C73.0295 57.0845 71.4844 64.1339 69.9221 70.4562C67.7332 79.2509 65.6988 88.0798 64.1022 96.9772C63.3297 101.266 62.6659 105.569 62.1108 109.887C61.5872 114.028 60.7803 118.442 61.0635 122.626C61.5185 129.53 67.8706 132.678 74.0166 133.662C74.0781 133.673 74.1416 133.66 74.1931 133.624C74.2446 133.589 74.2799 133.535 74.2913 133.474C74.3027 133.412 74.2892 133.349 74.2538 133.298C74.2183 133.246 74.1639 133.211 74.1025 133.2C70.6002 132.507 67.0293 131.54 64.4198 128.922C61.0807 125.603 61.467 121.274 61.8447 116.945C62.5228 109.596 63.6129 102.299 64.9606 95.0523C66.3083 87.8061 67.9306 80.5855 69.656 73.4077C71.3041 66.5636 72.4973 57.5807 79.5275 54.1073C79.6133 54.15 79.579 54.0388 79.5103 54.0731Z" fill="#A8ACB5"/>
<path d="M101.811 65.768C100.584 60.4895 97.8285 55.3393 92.249 53.7908C99.4595 56.0836 101.219 63.9372 102.181 70.499C103.188 77.4059 103.94 84.3413 104.438 91.3052C104.919 97.9953 105.297 104.745 105.125 111.461C104.987 118.699 103.666 125.492 99.3736 131.463C99.3532 131.488 99.3434 131.52 99.3467 131.552C99.3499 131.584 99.3658 131.614 99.3908 131.634C99.4158 131.655 99.448 131.664 99.4802 131.661C99.5124 131.658 99.542 131.642 99.5625 131.617C103.786 126.783 105.185 120.128 105.528 113.899C105.83 105.651 105.587 97.3915 104.799 89.175C104.181 81.4325 103.588 73.3736 101.811 65.768Z" fill="#A8ACB5"/>
<path d="M200.577 258.747C198.663 259.859 139.984 272.085 137.451 271.143C136.481 270.793 134.198 262.374 131.726 252.134C131.194 249.918 130.653 247.634 130.121 245.29C126.644 230.19 123.305 214.08 123.305 214.08L162.542 205.791L168.276 237.222L169.538 244.126C169.538 244.126 194.114 249.456 196.775 250.791C199.436 252.125 202.483 257.643 200.577 258.747Z" fill="#EDF0F6"/>
<path d="M132.644 256.043C134.739 264.445 136.576 270.835 137.417 271.143C139.941 272.093 198.637 259.859 200.543 258.747C202.448 257.635 199.401 252.142 196.749 250.808C195.101 249.952 185.118 247.642 177.71 245.965C184.182 247.505 196.251 251.877 171.289 253.665C150.67 255.171 137.065 255.847 132.644 256.043Z" fill="#A8ACB5"/>
<path d="M148.002 286.833C145.873 287.424 86.0003 284.344 83.7942 282.787C83.3135 282.445 83.8629 274.428 84.541 267.216C85.0475 261.844 98.1293 224.62 98.1293 224.62L138.182 226.571L121.735 264.821C121.735 264.821 144.13 276.225 146.379 278.184C148.628 280.143 150.13 286.243 148.002 286.833Z" fill="#EDF0F6"/>
<path d="M83.7939 282.778C86 284.343 145.873 287.423 148.01 286.833C150.147 286.243 148.594 280.151 146.37 278.184C145.323 277.268 139.907 274.317 134.422 271.417C141.289 275.283 152.199 283.89 84.4205 268.542C83.8025 275.369 83.3475 282.47 83.7939 282.778Z" fill="#A8ACB5"/>
<path d="M54.7208 170.646C66.661 183.889 106.756 173.426 109.151 178.696C111.263 183.35 83.8974 258.028 83.8974 258.028L127.675 262.725C127.675 262.725 165.444 180.262 151.959 156.427C144.663 143.595 112.473 148.728 93.0993 146.341C87.2451 145.631 84.5154 133.594 84.5154 133.594H49.8366C49.8366 133.594 41.081 155.503 54.7208 170.646Z" fill="#C7C9CD"/>
<path d="M139.795 149.044L103.03 177.062C90.8236 176.805 64.0934 181.023 54.7284 170.611C41.08 155.469 49.8355 133.576 49.8355 133.576H84.5058C84.5058 133.576 87.2527 145.604 93.0897 146.315C106.729 147.974 126.635 145.955 139.795 149.044Z" fill="#A8ACB5"/>
<path d="M129.357 252.989C128.147 252.612 116.799 251.355 114.292 251.081C109.279 250.542 93.5023 249.079 90.6439 249.079C90.6257 249.079 90.6082 249.086 90.5953 249.099C90.5824 249.112 90.5752 249.129 90.5752 249.148C90.5752 249.166 90.5824 249.183 90.5953 249.196C90.6082 249.209 90.6257 249.216 90.6439 249.216C93.1246 249.738 103.202 250.927 105.7 251.167C110.722 251.68 127.958 253.34 129.349 253.203C129.372 253.197 129.393 253.184 129.409 253.165C129.424 253.146 129.433 253.123 129.434 253.099C129.435 253.075 129.428 253.051 129.414 253.031C129.4 253.011 129.38 252.996 129.357 252.989Z" fill="#A8ACB5"/>
<path d="M114.464 174.324C111.648 172.93 90.3089 173.623 74.9781 172.194C69.9823 171.723 64.9779 170.662 61.1752 167.403C57.8502 164.424 55.4796 160.535 54.3596 156.221C52.8832 151.003 53.0377 145.57 53.2866 140.223C53.3467 138.914 53.4411 137.597 53.527 136.288C53.5217 136.273 53.5118 136.26 53.4988 136.25C53.4857 136.241 53.4701 136.236 53.454 136.236C53.438 136.236 53.4223 136.241 53.4093 136.25C53.3962 136.26 53.3863 136.273 53.3811 136.288C52.2222 145.852 51.3295 156.538 57.57 164.836C60.3463 168.465 64.2835 171.04 68.729 172.134C77.9653 174.555 112.687 173.956 113.906 174.889C115.365 176.001 92.9184 244.109 92.4463 245.409C92.369 245.649 92.7982 245.82 92.8926 245.572C95.1588 240.37 116.91 175.539 114.464 174.324Z" fill="#A8ACB5"/>
<path d="M153.538 158.737C151.478 153.51 146.766 150.259 139.804 149.018C139.692 149.018 139.701 149.163 139.804 149.198C145.813 150.96 150.165 153.381 152.542 158.463C153.65 160.841 154.259 164.178 154.517 168.644C155.95 190.947 136.431 241.568 136.027 242.449C136.027 242.535 136.104 242.595 136.147 242.518C138.946 237.898 162.062 180.296 153.538 158.737Z" fill="#D2D6DF"/>
<path d="M169.366 235.237L136.215 242.269C136.215 242.269 162.37 164.469 150.087 154.425C146.653 151.644 139.254 150.669 130.438 154.468C117.262 160.14 102.017 171.706 87.6392 175.933C74.1797 179.894 58.1965 176.249 52.6942 170.218C41.1403 157.539 49.8358 133.584 49.8358 133.584L97.5107 131.805C97.5107 131.805 96.7982 132.378 99.0729 134.371C99.0729 134.371 127.099 128.041 139.28 135.458C161.246 148.83 169.366 235.237 169.366 235.237Z" fill="#C7C9CD"/>
<path d="M70.4283 136.365C70.4227 136.348 70.4118 136.333 70.3971 136.323C70.3825 136.312 70.3649 136.306 70.3468 136.306C70.3287 136.306 70.3111 136.312 70.2964 136.323C70.2818 136.333 70.2709 136.348 70.2652 136.365C70.3041 138.151 70.1661 139.936 69.8532 141.695C69.4812 143.362 68.6521 144.893 67.4583 146.118C64.8402 148.753 61.0891 149.651 57.6641 150.729C57.4838 150.789 57.5182 151.106 57.7156 151.072C61.5183 150.49 65.5183 149.532 68.2995 146.691C69.5612 145.395 70.4146 143.76 70.7545 141.986C71.127 140.115 71.0148 138.181 70.4283 136.365Z" fill="#A8ACB5"/>
<path d="M149.263 152.945C144.165 149.754 136.199 152.175 132.388 153.63C132.302 153.63 132.388 153.792 132.388 153.758C135.898 152.5 144.628 150.601 149.298 153.895C160.088 161.509 145.65 213.601 136.182 242.27C136.036 242.715 136.388 242.595 136.585 242.167C138.147 238.745 150.319 202.54 153.538 178.577C154.105 174.889 156.611 157.539 149.263 152.945Z" fill="#A8ACB5"/>
<path d="M165.589 226.451C164.585 226.451 155.993 228.316 154.104 228.744C150.319 229.6 141.546 231.858 139.512 232.637C139.46 232.637 139.512 232.765 139.554 232.765C141.52 232.577 146.095 231.576 147.975 231.14C151.761 230.284 164.722 227.161 165.667 226.657C165.735 226.614 165.692 226.46 165.589 226.451Z" fill="#A8ACB5"/>
<path d="M147.64 151.593C144.207 149.719 140.129 149.411 136.318 149.882C132.301 150.488 128.402 151.706 124.756 153.492C117.03 157.026 109.614 161.346 101.845 164.853C94.0769 168.361 85.8793 171.09 77.3727 171.347C70.1022 171.569 60.8917 170.295 56.2135 163.776C49.0116 153.723 53.2091 136.399 53.2949 135.287C53.2949 135.201 53.1833 135.201 53.1576 135.287C47.5695 156.581 54.7628 164.845 59.6127 168.327C63.4668 171.09 69.0549 171.749 72.6688 172.091C81.141 172.784 89.6219 170.739 97.4504 167.651C105.485 164.46 113.03 160.157 120.73 156.23C128.121 152.466 136.353 148.582 144.765 150.737C145.718 150.993 146.653 151.313 147.563 151.696C147.658 151.687 147.683 151.61 147.64 151.593Z" fill="#A8ACB5"/>
<path d="M78.154 91.7758C83.1326 105.781 91.9912 122.249 95.2445 124.705C99.3561 127.827 121.674 130.351 122.91 130.342C125.975 130.342 128.267 109.861 124.988 109.81C119.992 109.665 106.258 109.913 105.056 108.955C103.854 107.996 95.1844 99.3386 86.1713 89.5258C79.9995 82.6902 75.0638 83.0837 78.154 91.7758Z" fill="#EDF0F6"/>
<path d="M121.734 130.351C124.544 131.411 127.427 132.269 130.361 132.917C132.679 133.302 139.391 134.252 140.069 131.745C140.541 130.034 136.636 129.025 133.932 128.237C132.498 127.827 130.644 126.595 130.945 125.671C131.477 124.054 135.185 125.192 137.657 126.27C142.447 128.349 148.962 132.344 151.443 129.76C152.379 128.785 150.997 127.356 149.057 126.03C152.121 127.485 155.34 128.597 156.422 127.553C156.699 127.285 156.862 126.921 156.88 126.537C156.897 126.152 156.767 125.775 156.516 125.483C156.896 125.608 157.304 125.618 157.689 125.511C158.074 125.404 158.419 125.186 158.679 124.884C159.538 123.806 158.885 122.429 157.701 121.085C157.872 121.046 158.031 120.966 158.166 120.853C158.3 120.74 158.405 120.597 158.473 120.435C160.096 117.218 149.263 109.775 145.769 109.365C138.85 108.676 131.872 108.82 124.988 109.793C121.417 113.351 121.726 130.342 121.734 130.351Z" fill="#EDF0F6"/>
<path d="M135.4 119.478C137.826 119.573 140.202 120.186 142.37 121.274C145.109 122.652 147.014 124.414 149.375 126.133C149.435 126.133 149.375 126.279 149.306 126.228C148.182 125.372 143.572 122.378 142.387 121.702C140.253 120.452 137.86 119.706 135.392 119.52L135.4 119.478Z" fill="#A8ACB5"/>
<path d="M136.774 115.029C139.523 115.35 142.232 115.949 144.86 116.817C147.684 117.869 150.01 119.837 152.336 121.736C153.721 122.877 155.077 124.043 156.405 125.235C156.465 125.287 156.405 125.381 156.336 125.338C153.996 123.37 151.598 121.48 149.143 119.666C146.871 117.97 144.287 116.735 141.538 116.03C139.967 115.628 138.37 115.354 136.774 115.072C136.739 115.072 136.748 115.02 136.774 115.029Z" fill="#A8ACB5"/>
<path d="M139.159 110.999C141.735 111.23 144.061 111.418 146.481 112.53C149.216 113.919 151.765 115.643 154.07 117.664C155.331 118.724 156.55 119.828 157.761 120.949C157.804 121 157.761 121.086 157.675 121.043C154.933 118.575 152.031 116.288 148.988 114.199C147.554 113.191 145.974 112.409 144.301 111.88C142.613 111.433 140.89 111.129 139.151 110.973C139.151 110.973 139.142 110.999 139.159 110.999Z" fill="#A8ACB5"/>
<path d="M124.919 108.236L120.129 132.909C120.129 132.909 99.0475 129.487 94.8499 125.859C90.6524 122.232 81.3733 102.367 78.1886 92.5628C75.004 82.7585 80.1286 82.4249 85.5364 88.2082C90.9443 93.9915 104.369 108.005 105.056 108.262C105.743 108.518 124.919 108.236 124.919 108.236Z" fill="#D2D6DF"/>
<path d="M116.953 122.557C117.537 119.648 118.146 116.739 118.627 113.805C118.901 112.094 119.185 110.468 119.485 108.8C119.485 108.74 119.391 108.715 119.373 108.8C118.67 111.7 117.966 114.609 117.391 117.543C116.815 120.478 116.223 123.37 115.674 126.295C115.373 127.955 115.116 129.623 114.918 131.3C114.918 131.3 114.97 131.3 114.979 131.3C115.751 128.409 116.335 125.491 116.953 122.557Z" fill="#A8ACB5"/>
<path opacity="0.1" d="M120.627 130.454L120.146 132.909C120.146 132.909 99.0558 129.487 94.8669 125.868C90.678 122.249 81.3902 102.367 78.2056 92.5629C75.8708 85.3936 77.991 83.2805 81.4074 84.9316C91.2531 96.1646 109.872 117.484 120.627 130.454Z" fill="#EDF0F6"/>
<path d="M48.7461 133.473L98.7043 134.329L94.79 119.417C96.0945 117.546 96.9719 115.413 97.3604 113.168C97.749 110.923 97.6393 108.62 97.039 106.422C95.8458 102.033 90.1719 95.4541 86.6697 91.2792C78.1802 81.1071 70.8067 85.7097 68.4547 88.3191C59.4674 98.2773 48.7461 133.473 48.7461 133.473Z" fill="#C1C1C1"/>
<path d="M72.3084 85.4275C72.3084 85.4275 77.2098 98.3971 79.1154 101.357C81.0211 104.317 86.6693 109.622 86.6693 109.622C86.6693 109.622 87.3216 101.973 86.6693 97.6443C86.0169 93.3154 82.2915 87.0444 82.2915 87.0444C83.2871 87.5682 84.1798 88.2667 84.9267 89.1062C89.1586 93.3838 96.515 101.853 97.6223 107.637C98.0371 109.639 98.0496 111.704 97.6592 113.711C97.2687 115.718 96.4831 117.629 95.3476 119.332L100.979 137.246L93.09 139.684L89.2101 135.09L85.2014 140.223L45.2349 134.671L51.8788 122.181C51.8788 122.181 61.3983 97.4988 65.1581 92.092C69.4757 85.9237 72.3084 85.4275 72.3084 85.4275Z" fill="#D2D6DF"/>
<path d="M81.4242 118.51C83.5585 118.311 85.705 118.274 87.845 118.399C88.9094 118.476 89.9652 118.596 91.021 118.75C91.5446 118.818 92.0682 118.878 92.6004 118.93C93.1537 118.994 93.7125 118.994 94.2657 118.93C94.3086 118.93 94.3258 118.998 94.2657 119.007C93.7547 119.127 93.2354 119.21 92.712 119.255C92.2034 119.293 91.6927 119.293 91.1841 119.255C90.1111 119.186 89.0295 119.075 87.9566 118.998C85.7763 118.835 83.6045 118.681 81.4156 118.681C81.3298 118.681 81.3212 118.519 81.4242 118.51Z" fill="#A8ACB5"/>
<path d="M76.5664 121.3C78.2602 120.81 79.9795 120.413 81.7167 120.11C82.5751 119.965 83.4335 119.871 84.3434 119.794L85.6138 119.708C86.0774 119.708 86.5495 119.708 87.013 119.708C87.013 119.708 87.0731 119.777 87.013 119.785C86.5752 119.785 86.1546 119.939 85.7083 120.008L84.4035 120.213L81.7854 120.615C80.0686 120.872 78.3004 121.146 76.5664 121.471C76.4977 121.454 76.4806 121.325 76.5664 121.3Z" fill="#A8ACB5"/>
<path d="M72.094 85.7356C71.5961 89.1577 71.021 92.5797 70.4373 96.0617L70.257 95.7794C72.2914 96.3098 74.3172 96.8915 76.343 97.4904L76.6863 97.5845L76.5404 97.9096C75.931 99.2357 75.3387 100.57 74.712 101.888L74.6348 101.52C76.7808 103.385 78.9267 105.216 81.0727 107.115C83.2187 109.014 85.3646 110.888 87.4162 112.83C85.1758 111.076 82.9612 109.279 80.7723 107.474C78.5834 105.669 76.4031 103.821 74.2228 101.999L74.0425 101.845L74.1369 101.631C74.7378 100.296 75.3644 98.979 75.9825 97.6529L76.1799 98.0721C74.1627 97.4818 72.1283 96.9172 70.1197 96.3012L69.8965 96.2328V96.0189C70.6261 92.5541 71.3214 89.132 72.094 85.7356Z" fill="#A8ACB5"/>
<path d="M83.3477 87.7717C84.4807 88.9352 85.2704 89.7736 86.3606 90.9714C87.4507 92.1691 88.5666 93.3583 89.6396 94.5816L89.8542 94.8297L89.571 95.0094L87.4593 96.3098L87.5194 95.8393C88.3778 96.6948 89.2362 97.5503 90.0946 98.4058L90.2148 98.5256V98.6796C89.777 101.032 89.3564 103.385 88.9014 105.729C88.4465 108.073 87.9658 110.409 87.4336 112.744C87.7254 110.366 88.0774 108.005 88.4379 105.643C88.7984 103.282 89.219 100.93 89.5967 98.5769L89.6826 98.8507C88.8242 97.9952 87.9658 97.1396 87.1074 96.2242L86.8413 95.9505L87.1503 95.7879L89.2791 94.5132L89.219 94.941C88.146 93.7176 87.1331 92.4514 86.0859 91.2109C85.0387 89.9704 84.352 89.0464 83.3477 87.7717Z" fill="#A8ACB5"/>
<path d="M87.416 112.787C87.7165 113.925 88.0255 115.063 88.2744 116.209C88.5233 117.356 88.8152 118.502 89.0641 119.631C89.1414 122.198 89.1671 124.764 89.21 127.331C89.253 129.897 89.21 132.464 89.21 135.031C89.0555 132.464 88.944 129.897 88.8581 127.331C88.7723 124.764 88.7122 122.198 88.6864 119.631C88.4461 118.476 88.2143 117.321 88.0083 116.209C87.8023 115.097 87.6049 113.951 87.416 112.787Z" fill="#A8ACB5"/>
<path d="M86.7381 115.841C86.743 116.039 86.6789 116.232 86.5568 116.388C86.4347 116.544 86.2622 116.653 86.0686 116.697C85.9517 116.717 85.8319 116.713 85.7167 116.686C85.6015 116.658 85.4933 116.606 85.399 116.534C85.2979 116.455 85.216 116.353 85.1595 116.238C85.1031 116.122 85.0734 115.996 85.0728 115.867C85.0712 115.742 85.097 115.618 85.1485 115.505C85.1999 115.391 85.2758 115.29 85.3707 115.208C85.4656 115.126 85.5772 115.067 85.6978 115.033C85.8183 114.999 85.9449 114.992 86.0686 115.012C86.2578 115.054 86.4271 115.159 86.5487 115.31C86.6703 115.461 86.737 115.648 86.7381 115.841ZM86.7381 115.841C86.7378 115.754 86.7166 115.668 86.6763 115.591C86.636 115.514 86.5777 115.447 86.5063 115.397C86.427 115.339 86.3331 115.304 86.2351 115.296C86.1371 115.288 86.0388 115.307 85.9511 115.351C85.8633 115.395 85.7896 115.463 85.7382 115.547C85.6867 115.63 85.6594 115.726 85.6594 115.824C85.6594 115.922 85.6867 116.018 85.7382 116.102C85.7896 116.185 85.8633 116.253 85.9511 116.297C86.0388 116.342 86.1371 116.361 86.2351 116.353C86.3331 116.345 86.427 116.31 86.5063 116.252C86.5732 116.205 86.6287 116.144 86.6688 116.073C86.7089 116.002 86.7326 115.923 86.7381 115.841Z" fill="#A8ACB5"/>
<path d="M87.7422 123.25C87.747 123.448 87.6829 123.641 87.5609 123.797C87.4388 123.953 87.2663 124.062 87.0726 124.105C86.9545 124.127 86.833 124.124 86.7162 124.096C86.5994 124.068 86.4898 124.016 86.3945 123.943C86.2927 123.863 86.2104 123.761 86.1538 123.644C86.0972 123.528 86.0679 123.4 86.0679 123.271C86.0679 123.142 86.0972 123.014 86.1538 122.898C86.2104 122.782 86.2927 122.68 86.3945 122.6C86.5214 122.512 86.6697 122.46 86.8238 122.449C86.9779 122.438 87.132 122.469 87.27 122.538C87.408 122.607 87.5247 122.712 87.6078 122.842C87.6909 122.972 87.7373 123.122 87.7422 123.276V123.25ZM87.7422 123.25C87.7399 123.163 87.7178 123.078 87.6777 123.001C87.6375 122.924 87.5803 122.857 87.5104 122.805C87.4311 122.747 87.3372 122.712 87.2392 122.704C87.1412 122.696 87.0428 122.715 86.9551 122.76C86.8674 122.804 86.7937 122.872 86.7422 122.955C86.6908 123.039 86.6635 123.135 86.6635 123.233C86.6635 123.331 86.6908 123.427 86.7422 123.51C86.7937 123.594 86.8674 123.662 86.9551 123.706C87.0428 123.75 87.1412 123.769 87.2392 123.761C87.3372 123.753 87.4311 123.718 87.5104 123.66C87.576 123.612 87.6306 123.551 87.6706 123.48C87.7105 123.409 87.7349 123.331 87.7422 123.25Z" fill="#A8ACB5"/>
<path d="M88.0861 130.009C88.091 130.207 88.0269 130.4 87.9048 130.556C87.7828 130.712 87.6102 130.821 87.4166 130.865C87.2998 130.885 87.18 130.881 87.0647 130.853C86.9495 130.825 86.8413 130.774 86.747 130.702C86.6452 130.622 86.5629 130.52 86.5064 130.404C86.4498 130.287 86.4204 130.16 86.4204 130.03C86.4204 129.901 86.4498 129.774 86.5064 129.657C86.5629 129.541 86.6452 129.439 86.747 129.359C86.8738 129.273 87.0213 129.223 87.1741 129.213C87.3269 129.204 87.4796 129.235 87.6162 129.304C87.7528 129.373 87.8684 129.477 87.951 129.606C88.0337 129.734 88.0803 129.882 88.0861 130.035V130.009ZM88.0861 130.009C88.0875 129.922 88.0679 129.837 88.0291 129.759C87.9903 129.682 87.9333 129.615 87.8629 129.564C87.7975 129.522 87.7236 129.495 87.6464 129.485C87.5693 129.474 87.4908 129.481 87.4166 129.504C87.3169 129.546 87.2317 129.616 87.1719 129.706C87.112 129.796 87.0801 129.901 87.0801 130.009C87.0801 130.117 87.112 130.222 87.1719 130.312C87.2317 130.402 87.3169 130.472 87.4166 130.514C87.4915 130.536 87.5703 130.541 87.6474 130.529C87.7245 130.517 87.7981 130.489 87.8629 130.445C87.9321 130.395 87.9883 130.33 88.0271 130.254C88.0659 130.178 88.0861 130.094 88.0861 130.009Z" fill="#A8ACB5"/>
<path d="M74.3945 86.0265C74.3945 86.959 77.0126 93.7261 81.0556 94.5816C82.3775 94.8725 84.2574 87.7375 84.2574 87.7375L84.5149 87.2413L88.1373 80.3886L80.987 72.5435L79.9311 71.4827C79.9311 71.4827 79.0728 73.4332 78.0084 75.8715L77.8624 76.2222C77.8023 76.3591 77.7337 76.4874 77.6822 76.6158C77.5191 76.9751 77.356 77.3515 77.2015 77.7194C77.047 78.0873 76.9611 78.284 76.8495 78.5749C76.7379 78.8658 76.6178 79.1652 76.489 79.4304C75.6388 81.5782 74.939 83.7822 74.3945 86.0265Z" fill="#EDF0F6"/>
<path d="M78.0088 75.8886C78.1976 78.1474 78.8774 80.3383 80.001 82.309C81.1246 84.2798 82.665 85.9833 84.5154 87.3012L88.1378 80.3886L80.9874 72.5435L79.9316 71.4827C79.9316 71.4827 79.0646 73.4504 78.0088 75.8886Z" fill="#A8ACB5"/>
<path d="M101.545 71.2345C100.026 84.8116 91.6823 85.4275 88.7467 85.0853C86.0771 84.7859 77.0382 83.4171 77.1584 69.7545C77.2786 56.0919 84.1028 52.5158 90.2403 52.8922C96.3777 53.2687 103.09 57.6575 101.545 71.2345Z" fill="#EDF0F6"/>
<path d="M99.8886 68.6762C99.5796 68.5906 99.3049 68.4708 99.0302 68.3596C98.6969 68.2934 98.395 68.1189 98.1718 67.8634C98.1175 67.7703 98.0956 67.6619 98.1096 67.5552C98.1236 67.4484 98.1726 67.3492 98.2491 67.2731C98.4236 67.1477 98.6283 67.0706 98.8423 67.0496C99.0564 67.0285 99.2723 67.0643 99.468 67.1533C99.8927 67.2745 100.257 67.549 100.489 67.9233C100.539 68.0134 100.561 68.1161 100.552 68.2184C100.543 68.3207 100.504 68.4182 100.44 68.4986C100.376 68.579 100.289 68.6387 100.191 68.6703C100.093 68.7019 99.9878 68.7039 99.8886 68.6762Z" fill="#A8ACB5"/>
<path d="M90.5835 66.9745C90.8992 66.969 91.2145 66.9462 91.5277 66.9061C91.8613 66.9298 92.1934 66.8425 92.4719 66.658C92.5485 66.5821 92.5983 66.4836 92.6138 66.3771C92.6293 66.2706 92.6096 66.162 92.5578 66.0676C92.4229 65.9012 92.2463 65.7731 92.0458 65.6965C91.8453 65.6199 91.6281 65.5974 91.4161 65.6313C90.9723 65.6286 90.5447 65.7972 90.223 66.1019C90.1524 66.1736 90.1045 66.2644 90.0852 66.3631C90.0659 66.4617 90.0761 66.5638 90.1145 66.6567C90.1529 66.7496 90.2178 66.8292 90.3011 66.8857C90.3845 66.9422 90.4827 66.9731 90.5835 66.9745Z" fill="#A8ACB5"/>
<path d="M92.3002 70.978C92.3002 70.978 92.2229 70.978 92.2229 71.0465C92.1457 71.979 91.9053 73.0313 91.0298 73.2451V73.2965C92.0598 73.2879 92.3603 71.8934 92.3002 70.978Z" fill="#A8ACB5"/>
<path d="M91.562 69.9431C90.0856 69.6693 89.6307 72.638 91.0041 72.8946C92.3775 73.1513 92.8067 70.1827 91.562 69.9431Z" fill="#A8ACB5"/>
<path d="M90.953 70.0116C90.6697 70.14 90.3693 70.3966 90.0517 70.3881C89.7341 70.3795 89.4594 70.0116 89.262 69.678C89.262 69.678 89.219 69.678 89.2104 69.678C89.116 70.2426 89.2104 70.8671 89.8457 71.0383C90.4809 71.2094 90.8671 70.7559 91.0989 70.1827C91.1418 70.1228 91.0731 69.9603 90.953 70.0116Z" fill="#A8ACB5"/>
<path d="M97.4508 71.5852C97.4508 71.5852 97.5194 71.6365 97.5109 71.6708C97.3306 72.5862 97.2877 73.6641 98.0688 74.1004C98.0688 74.1004 98.0688 74.1603 98.0688 74.1518C97.0559 73.8438 97.1332 72.4236 97.4508 71.5852Z" fill="#A8ACB5"/>
<path d="M98.4204 70.756C99.9226 70.8758 99.5621 73.8615 98.1715 73.7418C96.7809 73.622 97.1586 70.6534 98.4204 70.756Z" fill="#A8ACB5"/>
<path d="M99.022 71.0205C99.2366 71.2087 99.434 71.5252 99.7173 71.5765C100.001 71.6279 100.318 71.3455 100.576 71.0632H100.619C100.567 71.6364 100.31 72.2096 99.7602 72.2524C99.2109 72.2952 98.9018 71.7562 98.9018 71.1744C98.8332 71.0975 98.9362 70.9777 99.022 71.0205Z" fill="#A8ACB5"/>
<path d="M95.3652 75.7428C95.3652 75.7428 95.3652 77.4443 95.2708 78.0945C95.2708 78.1544 94.8759 77.9137 94.8759 77.9137C94.2296 77.6899 93.8155 77.5013 93.3145 77.2252C92.8134 76.9491 92.3993 76.7691 92.0347 76.2732C92.0347 76.2047 92.0862 76.1449 92.1377 76.1962C93.2353 76.6068 93.772 76.7691 94.8759 77.3939C94.9446 77.2228 94.7901 74.9899 94.8759 74.9985C95.3731 75.1132 95.8525 75.2945 96.3009 75.5374C96.3953 72.6201 96.009 69.7028 96.1463 66.794C96.1463 66.7714 96.1554 66.7496 96.1715 66.7336C96.1876 66.7175 96.2094 66.7085 96.2322 66.7085C96.2549 66.7085 96.2768 66.7175 96.2929 66.7336C96.309 66.7496 96.318 66.7714 96.318 66.794C96.8254 69.9038 97.018 73.0566 96.8931 76.2047C96.876 76.5641 95.6056 75.8882 95.3652 75.7428Z" fill="#A8ACB5"/>
<path d="M77.2017 71.4145C78.1501 71.1469 79.0121 70.6378 79.703 69.9373C80.3939 69.2367 80.8897 68.3689 81.1417 67.4192C83.6982 66.7965 86.0419 65.506 87.9316 63.6806C87.7942 63.9373 86.7814 65.8365 86.2148 66.7947C95.1163 66.6835 98.9275 60.5751 98.9275 60.5751C100.32 62.378 101.282 64.4725 101.743 66.7006C101.743 66.7006 102.73 61.4477 100.627 57.4439C99.9623 56.0625 98.9395 54.883 97.6644 54.0272C96.3893 53.1715 94.9081 52.6705 93.3738 52.576C91.336 51.69 89.0961 51.3686 86.8904 51.6457C84.6846 51.9227 82.5948 52.788 80.8413 54.1501C74.1802 59.2319 77.2017 71.4145 77.2017 71.4145Z" fill="#A8ACB5"/>
<path d="M93.0213 66.5119C91.505 67.0294 89.9194 67.3178 88.3174 67.3674C90.8568 67.1284 93.2792 66.1893 95.3132 64.6554C96.1737 63.9974 96.9492 63.2359 97.6223 62.3883C98.3915 61.4837 98.9748 60.4372 99.3391 59.3085C99.3391 59.2229 99.485 59.2571 99.4678 59.3085C99.2294 60.4619 98.797 61.5668 98.1888 62.5765C97.5449 63.5517 96.7274 64.4012 95.7768 65.0832C94.9258 65.6818 93.9956 66.1597 93.0128 66.5034L93.0213 66.5119Z" fill="#A8ACB5"/>
<path d="M76.3515 74.4C76.5334 74.5183 76.7295 74.6131 76.9352 74.6823C77.1378 74.7644 77.3522 74.8135 77.5704 74.8278C77.86 74.8655 78.1544 74.8332 78.4288 74.7337C78.6383 74.6699 78.8356 74.5716 79.0125 74.4428C79.2692 74.2696 79.493 74.0523 79.6735 73.8011V70.0711C79.6735 70.0711 77.579 65.2973 75.4759 65.9646C73.3729 66.6319 74.2742 73.0911 76.3515 74.4Z" fill="#EDF0F6"/>
<path d="M75.7421 67.7781C75.7421 67.7781 75.6906 67.8209 75.7421 67.838C77.1756 68.7876 77.7078 70.4045 77.9825 72.0129C77.922 71.8387 77.8245 71.6795 77.6968 71.5461C77.569 71.4128 77.4139 71.3085 77.242 71.2403C77.0701 71.1721 76.8855 71.1416 76.7008 71.1509C76.516 71.1603 76.3354 71.2091 76.1713 71.2943C76.1621 71.2982 76.1543 71.3048 76.1488 71.3132C76.1433 71.3215 76.1404 71.3313 76.1404 71.3413C76.1404 71.3513 76.1433 71.3611 76.1488 71.3694C76.1543 71.3778 76.1621 71.3844 76.1713 71.3884C76.4648 71.3557 76.7612 71.4147 77.0195 71.5573C77.2778 71.6998 77.4854 71.9188 77.6134 72.184C77.8235 72.6281 77.9874 73.0925 78.1027 73.5699C78.1456 73.7239 78.4117 73.7068 78.3945 73.5699V73.5272C78.8409 71.5081 77.8538 68.4112 75.7421 67.7781Z" fill="#A8ACB5"/>
<path d="M64.4975 90.107C56.3857 97.1907 35.5956 125.081 40.703 131.061C45.8104 137.041 77.8969 132.883 87.1246 129.581C89.8715 128.605 81.5537 111.324 78.5407 110.639C76.0085 110.066 62.3 114.729 61.991 113.942C61.682 113.155 64.3602 106.986 68.6607 95.9759C73.5878 83.2287 68.0856 86.9758 64.4975 90.107Z" fill="#EDF0F6"/>
<path d="M92.0605 106.687C98.5156 106.439 100.215 107.363 105.554 104.266C109.057 102.238 111.855 103.599 109.615 107.158C105.949 112.975 97.6916 115.037 94.6185 114.926L92.0605 106.687Z" fill="#EDF0F6"/>
<path d="M74.5322 111.101C79.1575 109.161 83.9901 107.755 88.936 106.909C93.6743 106.259 104.147 105.985 113.022 117.175C115.125 119.819 116.241 125.08 111.228 122.001C107.666 119.819 106.078 117.355 103.769 116.457C103.769 116.457 104.396 123.301 101.649 125.311C99.2522 127.059 96.7336 128.635 94.1121 130.025C93.7474 129.604 93.4091 129.162 93.0991 128.699C93.0991 128.699 90.3609 130.325 85.6054 129.384L74.5322 111.101Z" fill="#EDF0F6"/>
<path d="M93.5624 107.012C95.6569 108.39 100.052 111.367 102.799 115.054C105.846 119.144 110.619 127.887 107.563 130.06C105.322 131.677 103.211 128.52 103.211 128.52C103.211 128.52 104.421 132.533 102.069 133.551C99.9316 134.483 98.4466 131.942 98.4466 131.942C98.4466 131.942 98.7642 134.509 96.5324 135.005C93.8457 135.612 93.6311 130.146 90.3778 128.417C89.6481 128.033 93.5624 107.012 93.5624 107.012Z" fill="#EDF0F6"/>
<path d="M97.9233 117.544C100.769 120.543 102.629 124.337 103.254 128.417C103.254 128.529 103.194 128.589 103.159 128.494C101.855 124.651 100.082 120.982 97.8804 117.569C97.8804 117.569 97.9061 117.518 97.9233 117.544Z" fill="#A8ACB5"/>
<path d="M93.871 120.726C95.2445 122.275 98.163 127.245 98.5321 131.908C98.5321 132.011 98.4634 132.071 98.4377 131.977C97.3278 128.075 95.7815 124.31 93.8281 120.752C93.8281 120.752 93.8453 120.709 93.871 120.726Z" fill="#A8ACB5"/>
<path d="M103.777 116.397C105.592 117.221 107.248 118.356 108.67 119.751C109.466 120.446 110.299 121.098 111.167 121.702C111.966 122.24 113.15 123.053 114.12 122.429C114.352 122.228 114.525 121.968 114.621 121.678C114.718 121.387 114.735 121.077 114.67 120.778C114.502 119.914 114.198 119.082 113.768 118.314C113.768 118.314 113.768 118.254 113.82 118.314C114.237 119.02 114.584 119.765 114.858 120.538C115.017 121.071 115.017 121.639 114.858 122.172C114.438 123.284 113.073 123.293 112.146 122.891C111.598 122.623 111.078 122.302 110.592 121.932C110.12 121.599 109.657 121.24 109.21 120.863C108.292 120.102 107.416 119.289 106.506 118.51C105.616 117.781 104.681 117.107 103.708 116.491C103.708 116.491 103.734 116.38 103.777 116.397Z" fill="#A8ACB5"/>
<path d="M74.5317 111.101L82.4461 133.148C82.4461 133.148 42.2992 138.016 39.5953 130.864C36.8914 123.712 54.8317 98.5767 62.4799 91.5102C71.3471 83.3143 72.0596 86.4712 69.5016 94.2735C66.8234 102.435 62.0593 114.156 62.0593 114.156L74.5317 111.101Z" fill="#D2D6DF"/>
<path d="M74.4288 111.033C74.2228 111.033 63.1324 113.523 62.7633 113.651C62.8234 113.497 65.3385 107.996 65.699 107.192L65.802 106.952C66.0338 106.601 66.2741 106.251 66.4887 105.883L67.3471 104.497C67.0467 104.942 66.7548 105.352 66.4887 105.849C66.3514 106.054 66.2226 106.268 66.0939 106.482C66.3428 105.917 66.5832 105.344 66.8235 104.771C67.2098 103.855 67.5617 102.931 67.9137 101.999H67.8707C67.1325 103.599 66.3428 105.181 65.6046 106.781C64.8664 108.381 62.0337 114.267 62.0509 114.267C62.068 114.267 74.3001 111.29 74.5318 111.213C74.5437 111.206 74.5541 111.197 74.5624 111.186C74.5707 111.175 74.5769 111.163 74.5805 111.15C74.5841 111.137 74.585 111.123 74.5833 111.11C74.5816 111.096 74.5772 111.083 74.5705 111.072C74.5637 111.06 74.5547 111.049 74.5439 111.041C74.5331 111.033 74.5208 111.027 74.5076 111.023C74.4945 111.019 74.4808 111.019 74.4672 111.02C74.4537 111.022 74.4406 111.026 74.4288 111.033Z" fill="#A8ACB5"/>
<path d="M73.7679 124.875C72.9095 122.411 72.0511 119.947 71.0897 117.518C70.5489 116.14 70.0082 114.754 69.4502 113.386C69.4502 113.334 69.3386 113.386 69.3558 113.386C70.1283 115.892 70.9095 118.399 71.8022 120.871C72.6949 123.344 73.519 125.782 74.4632 128.229C74.9897 129.615 75.5619 130.986 76.18 132.344C76.18 132.344 76.2401 132.344 76.2315 132.344C75.5104 129.777 74.6435 127.305 73.7679 124.875Z" fill="#A8ACB5"/>
<path d="M82.9181 133.533C82.5919 132.84 82.1884 131.822 81.8365 131.189C81.7421 131.009 81.6047 131.026 81.6734 131.189C81.9138 131.805 82.1026 132.489 82.3344 133.122L80.6176 133.285L78.6691 133.49C77.3986 133.627 76.0939 133.738 74.8492 133.85C72.2683 134.066 69.6932 134.223 67.1237 134.32C61.9277 134.579 56.7217 134.567 51.5268 134.286C50.0762 134.192 48.6255 134.072 47.1834 133.909C45.7413 133.747 44.1275 133.55 42.8915 133.276C42.8915 133.276 42.8314 133.336 42.8915 133.345C44.0882 133.728 45.3139 134.014 46.5568 134.2C47.8615 134.397 49.1319 134.56 50.4796 134.671C53.0548 134.902 55.7158 134.996 58.3424 135.022C63.5357 135.064 68.7461 134.885 73.9308 134.491C75.3814 134.389 76.8321 134.26 78.2828 134.115C79.0124 134.046 79.7506 133.978 80.4803 133.892C81.3016 133.842 82.1172 133.722 82.9181 133.533Z" fill="#A8ACB5"/>
<path d="M137.117 135.86H86.5747V138.119H137.117V135.86Z" fill="#BBBFC5"/>
<path d="M137.117 135.86V138.119H102.764L104.498 135.86H137.117Z" fill="#A8ACB5"/>
<path d="M109.717 138.119H153.95L160.354 107.012H116.112L109.717 138.119Z" fill="#A8ACB5"/>
<path d="M111.777 138.119H156.019L162.422 107.012H118.181L111.777 138.119Z" fill="#BBBFC5"/>
<path d="M141.091 121.454C141.128 122.146 140.931 122.832 140.531 123.399C140.131 123.967 139.551 124.385 138.885 124.585C137.623 124.85 136.558 123.875 136.516 122.403C136.476 121.71 136.671 121.024 137.069 120.454C137.468 119.885 138.047 119.466 138.713 119.263C139.983 118.964 141.039 119.939 141.091 121.454Z" fill="white"/>
<path d="M250.836 154.241L257.317 148.425L234.359 123.013L227.878 128.829L250.836 154.241Z" fill="#D2D6DF"/>
<path d="M268.781 177.438L278.584 168.643L254.798 142.31L244.995 151.105L268.781 177.438Z" fill="#A8ACB5"/>
<path d="M198.505 137.194C190.793 135.679 183.705 131.918 178.137 126.388C172.569 120.858 168.772 113.807 167.225 106.126C165.679 98.4445 166.452 90.4788 169.448 83.2358C172.443 75.9927 177.527 69.7977 184.055 65.4341C190.583 61.0705 198.263 58.7343 206.124 58.721C213.984 58.7077 221.672 61.0178 228.216 65.3592C234.759 69.7006 239.863 75.8783 242.884 83.1111C245.904 90.3439 246.705 98.307 245.184 105.993C243.135 116.294 237.069 125.365 228.318 131.214C219.567 137.063 208.845 139.214 198.505 137.194ZM199.364 132.737C206.193 134.08 213.269 133.374 219.696 130.709C226.123 128.044 231.612 123.539 235.471 117.764C239.329 111.989 241.382 105.204 241.37 98.2663C241.359 91.3284 239.283 84.5498 235.406 78.7877C231.529 73.0256 226.025 68.5388 219.589 65.8948C213.153 63.2508 206.075 62.5684 199.25 63.9338C192.425 65.2992 186.16 68.6512 181.246 73.5657C176.333 78.4802 172.992 84.7366 171.646 91.5436C170.75 96.0658 170.756 100.72 171.665 105.24C172.575 109.759 174.369 114.056 176.945 117.884C179.522 121.712 182.831 124.997 186.682 127.55C190.533 130.103 194.851 131.874 199.389 132.762L199.364 132.737Z" fill="#D2D6DF"/>
<path d="M241.519 89.679C240.486 85.569 238.743 81.6696 236.368 78.1552C231.3 70.6904 223.61 65.3886 214.813 63.2947C206.017 61.2009 196.753 62.4669 188.847 66.8433C180.941 71.2197 174.967 78.3889 172.101 86.9379C169.236 95.487 169.688 104.796 173.368 113.029C177.048 121.263 183.688 127.824 191.981 131.419C200.274 135.014 209.618 135.383 218.17 132.453C226.722 129.523 233.863 123.506 238.185 115.589C242.507 107.671 243.696 98.4272 241.519 89.679ZM239.553 104.89C238.042 112.596 233.896 119.54 227.823 124.54C221.75 129.541 214.124 132.287 206.247 132.311C198.369 132.336 190.727 129.636 184.623 124.674C178.518 119.711 174.33 112.792 172.771 105.096C171.212 97.4002 172.379 89.4036 176.074 82.4693C179.768 75.535 185.761 70.0923 193.031 67.0688C200.301 64.0452 208.398 63.6281 215.942 65.8884C223.486 68.1487 230.01 72.9465 234.403 79.4642C239.43 86.9251 241.283 96.0695 239.553 104.89ZM241.519 89.679C240.486 85.569 238.743 81.6696 236.368 78.1552C231.3 70.6904 223.61 65.3886 214.813 63.2947C206.017 61.2009 196.753 62.4669 188.847 66.8433C180.941 71.2197 174.967 78.3889 172.101 86.9379C169.236 95.487 169.688 104.796 173.368 113.029C177.048 121.263 183.688 127.824 191.981 131.419C200.274 135.014 209.618 135.383 218.17 132.453C226.722 129.523 233.863 123.506 238.185 115.589C242.507 107.671 243.696 98.4272 241.519 89.679ZM239.553 104.89C238.042 112.596 233.896 119.54 227.823 124.54C221.75 129.541 214.124 132.287 206.247 132.311C198.369 132.336 190.727 129.636 184.623 124.674C178.518 119.711 174.33 112.792 172.771 105.096C171.212 97.4002 172.379 89.4036 176.074 82.4693C179.768 75.535 185.761 70.0923 193.031 67.0688C200.301 64.0452 208.398 63.6281 215.942 65.8884C223.486 68.1487 230.01 72.9465 234.403 79.4642C239.43 86.9251 241.283 96.0695 239.553 104.89ZM245.948 88.5925C244.784 83.9663 242.82 79.5775 240.145 75.6229C237.219 71.0293 233.4 67.0659 228.913 63.9662C224.426 60.8666 219.362 58.6933 214.019 57.5745C208.676 56.4558 203.163 56.4141 197.803 57.452C192.444 58.49 187.348 60.5864 182.814 63.618C178.28 66.6495 174.402 70.5547 171.406 75.1036C168.41 79.6524 166.358 84.7529 165.371 90.1044C164.384 95.4559 164.481 100.95 165.658 106.264C166.834 111.577 169.066 116.602 172.221 121.042C177.582 128.996 185.582 134.815 194.817 137.479C204.052 140.143 213.934 139.481 222.729 135.61C231.523 131.74 238.67 124.906 242.916 116.309C247.162 107.712 248.235 97.8996 245.948 88.5925ZM244.025 105.771C242.183 115.061 236.965 123.347 229.372 129.039C221.778 134.731 212.344 137.429 202.877 136.616C193.411 135.803 184.579 131.535 178.075 124.632C171.571 117.729 167.852 108.676 167.632 99.2085C167.413 89.7413 170.707 80.5265 176.884 73.3309C183.061 66.1353 191.685 61.4654 201.104 60.2167C210.522 58.968 220.072 61.2283 227.921 66.5643C235.771 71.9003 241.368 79.9363 243.639 89.1315C244.992 94.5825 245.124 100.264 244.025 105.771ZM236.394 78.1552C231.326 70.6904 223.635 65.3886 214.839 63.2947C206.043 61.2009 196.779 62.4669 188.873 66.8433C180.967 71.2197 174.992 78.3889 172.127 86.9379C169.262 95.487 169.714 104.796 173.394 113.029C177.073 121.263 183.714 127.824 192.007 131.419C200.3 135.014 209.643 135.383 218.196 132.453C226.748 129.523 233.889 123.506 238.211 115.589C242.533 107.671 243.722 98.4272 241.544 89.679C240.511 85.569 238.769 81.6696 236.394 78.1552ZM239.553 104.89C238.042 112.596 233.896 119.54 227.823 124.54C221.75 129.541 214.124 132.287 206.247 132.311C198.369 132.336 190.727 129.636 184.623 124.674C178.518 119.711 174.33 112.792 172.771 105.096C171.212 97.4002 172.379 89.4036 176.074 82.4693C179.768 75.535 185.761 70.0923 193.031 67.0688C200.301 64.0452 208.398 63.6281 215.942 65.8884C223.486 68.1487 230.01 72.9465 234.403 79.4642C239.43 86.9251 241.283 96.0695 239.553 104.89Z" fill="#D2D6DF"/>
<g opacity="0.3">
<path d="M199.445 131.574C191.715 130.069 184.749 125.939 179.732 119.888C174.716 113.837 171.96 106.239 171.935 98.3896C171.91 90.5403 174.618 82.9253 179.595 76.8425C184.573 70.7598 191.513 66.5857 199.233 65.0319C206.953 63.4781 214.974 64.6407 221.93 68.3214C228.886 72.0022 234.346 77.9734 237.38 85.2172C240.413 92.461 240.832 100.529 238.565 108.046C236.298 115.563 231.485 122.064 224.948 126.441C217.464 131.45 208.292 133.296 199.445 131.574Z" fill="white"/>
</g>
<path d="M182.041 112.675C180.117 109.593 178.857 106.147 178.341 102.554C178.06 100.729 177.96 98.8805 178.041 97.0358C178.151 95.1707 178.438 93.3202 178.899 91.5091C179.864 87.8657 181.58 84.4626 183.938 81.5167C186.256 78.617 189.094 76.1716 192.307 74.3047C189.746 76.8165 187.445 79.5796 185.44 82.5519C184.479 84.0131 183.638 85.5495 182.925 87.146C182.202 88.7178 181.627 90.3531 181.208 92.031C180.348 95.3814 180.018 98.8452 180.23 102.297C180.414 105.816 181.022 109.3 182.041 112.675Z" fill="white"/>
<path d="M223.314 189.512C223.876 193.363 223.678 197.287 222.733 201.063C222.287 202.813 221.691 204.521 220.952 206.169C220.034 208.287 219.071 210.344 219.301 212.661C219.53 212.805 218.758 212.783 218.735 212.562C212.534 209.041 204.583 208.394 199.812 202.656C197.657 199.855 196.294 196.529 195.867 193.024C195.286 189.26 195.103 185.1 196.097 181.397C196.915 178.288 198.75 175.24 201.731 173.716C204.713 172.192 208.773 172.268 211.984 173.259C218.895 175.385 222.374 182.86 223.314 189.512Z" fill="#D8DDE8"/>
<path d="M226.502 235.254C225.656 232.445 224.803 229.638 223.941 226.834C222.236 221.34 220.47 215.869 218.513 210.459C217.346 207.223 216.11 204.015 214.805 200.835C214.958 198.832 215.213 196.838 215.57 194.861C216.089 192.469 216.846 190.152 217.542 187.813C217.588 187.668 217.351 187.592 217.297 187.729C215.906 190.96 214.086 195.09 214.041 198.915C212.511 195.318 210.888 191.775 209.17 188.285C208.953 185.334 209.022 182.369 209.377 179.431C209.376 179.406 209.368 179.383 209.352 179.364C209.336 179.345 209.314 179.332 209.289 179.328C209.265 179.323 209.24 179.327 209.218 179.339C209.196 179.351 209.18 179.37 209.17 179.393C208.655 181.963 208.467 184.587 208.612 187.203C207.274 184.582 205.875 181.991 204.377 179.439C204.247 179.21 203.926 179.439 204.04 179.675C206.375 184.15 208.549 188.704 210.562 193.337C207.711 190.868 204.413 188.964 200.845 187.729C200.684 187.668 200.569 187.897 200.73 187.958C204.622 189.627 208.183 191.978 211.242 194.899C212.7 198.283 214.089 201.696 215.409 205.14C211.533 201.33 206.235 198.854 201.089 197.521C200.913 197.475 200.868 197.742 201.036 197.787C206.976 199.57 211.594 202.931 216.112 206.931C216.622 208.328 217.132 209.722 217.641 211.114C219.56 216.41 221.372 221.744 223.116 227.116C223.946 229.656 224.767 232.226 225.577 234.827C226.441 237.601 227.106 240.527 228.246 243.209C228.353 243.46 228.819 243.407 228.758 243.095C228.138 240.445 227.385 237.828 226.502 235.254Z" fill="#A8ACB5"/>
<path d="M216.258 184.102C215.154 185.787 214.393 187.672 214.018 189.649C214.018 189.703 214.095 189.733 214.11 189.649C214.803 187.787 215.612 185.97 216.533 184.209C216.587 184.057 216.319 183.942 216.258 184.102Z" fill="#A8ACB5"/>
<path d="M205.156 196.979C203.429 196.027 201.544 195.395 199.591 195.112C199.545 195.112 199.506 195.181 199.591 195.204C200.485 195.57 201.425 195.829 202.335 196.179C203.245 196.53 204.124 196.941 205.049 197.269C205.084 197.272 205.119 197.263 205.149 197.244C205.179 197.225 205.201 197.197 205.214 197.165C205.226 197.132 205.227 197.096 205.216 197.062C205.206 197.029 205.185 197 205.156 196.979Z" fill="#A8ACB5"/>
<path d="M202.038 181.496C201.48 181.069 200.881 180.699 200.249 180.391C200.228 180.378 200.202 180.374 200.178 180.379C200.153 180.385 200.132 180.4 200.119 180.422C200.106 180.443 200.102 180.468 200.107 180.493C200.113 180.517 200.128 180.538 200.149 180.551C200.699 180.984 201.287 181.364 201.908 181.686C202.023 181.755 202.153 181.565 202.038 181.496Z" fill="#A8ACB5"/>
<path d="M244.217 210.505C239.752 211.823 235.264 213.042 230.799 214.353C230.417 214.467 222.864 200.05 225.593 192.621C226.894 189.257 228.931 186.225 231.556 183.745C234.182 181.266 237.329 179.401 240.769 178.288C243.957 177.206 247.879 176.299 251.243 177.038C254.24 177.701 256.358 180.14 257.36 182.951C258.682 186.761 258.246 191.333 257.52 195.212C256.95 198.869 255.438 202.316 253.132 205.216C250.723 208.005 247.703 209.476 244.217 210.505Z" fill="#D8DDE8"/>
<path d="M250.662 196.796C247.84 198.172 244.913 199.321 241.908 200.232C239.902 200.771 237.946 201.477 236.059 202.343C237.948 198.152 240.019 194.053 242.214 189.984C245.096 189.153 248.131 187.858 250.31 185.823C250.328 185.799 250.337 185.77 250.336 185.74C250.335 185.711 250.324 185.682 250.304 185.66C250.284 185.637 250.257 185.622 250.228 185.617C250.198 185.613 250.168 185.618 250.142 185.633C247.764 187.309 245.142 188.315 242.497 189.443C243.083 188.345 243.684 187.253 244.301 186.166C244.469 185.861 244.049 185.564 243.842 185.854C241.498 189.253 239.378 192.801 237.496 196.476C237.022 193.255 236.869 189.996 237.038 186.745C237.038 186.661 236.923 186.654 236.908 186.745C236.356 190.283 236.395 193.888 237.022 197.413C235.455 200.529 234.025 203.722 232.749 206.953C232.236 205.01 231.579 203.097 231.135 201.139C230.461 198.337 230.244 195.445 230.493 192.574C230.493 192.491 230.379 192.483 230.363 192.574C229.596 197.901 230.269 203.336 232.313 208.317C231.548 210.26 230.853 212.211 230.203 214.169C226.838 224.147 224.845 234.533 224.278 245.044C224.286 245.087 224.31 245.126 224.344 245.154C224.378 245.182 224.421 245.197 224.465 245.197C224.509 245.197 224.552 245.182 224.586 245.154C224.62 245.126 224.643 245.087 224.652 245.044C225.825 234.685 228.056 224.472 231.311 214.565C232.603 210.687 234.094 206.945 235.73 203.219C238.368 202.457 240.99 201.391 243.582 200.499C246.175 199.724 248.621 198.526 250.822 196.956C250.876 196.887 250.784 196.75 250.662 196.796Z" fill="#A8ACB5"/>
<path d="M254.86 192.613C252.122 193.581 249.508 194.937 246.809 195.92C246.679 195.966 246.755 196.164 246.885 196.141C249.768 195.547 252.635 194.656 254.959 192.766C255.051 192.697 254.951 192.575 254.86 192.613Z" fill="#A8ACB5"/>
<path d="M232.558 186.738C232.558 186.594 232.382 186.51 232.336 186.662C231.572 189.169 231.067 191.836 231.801 194.396C231.801 194.495 231.984 194.503 231.992 194.396C232.122 191.798 231.977 189.283 232.558 186.738Z" fill="#A8ACB5"/>
<path d="M243.843 180.947C242.967 182.191 242.548 183.698 242.658 185.214C242.658 185.305 242.811 185.359 242.841 185.252C243.17 183.812 243.728 182.509 244.172 181.115C244.194 181.071 244.198 181.021 244.183 180.974C244.168 180.928 244.135 180.889 244.091 180.867C244.048 180.845 243.997 180.841 243.95 180.856C243.904 180.871 243.865 180.903 243.843 180.947Z" fill="#A8ACB5"/>
<path d="M191.104 216.859C192.412 221.004 195.523 226.727 200.447 226.765C203.643 226.765 206.861 226.414 210.065 226.369C213.49 226.315 216.946 226.323 220.348 226.529C220.623 226.529 219.935 216.295 211.693 211.289C209.4 209.887 206.563 209.445 203.949 208.881C200.944 208.172 197.861 207.852 194.774 207.929C192.886 208.005 191.311 208.401 190.638 210.337C189.965 212.272 190.477 214.863 191.104 216.859Z" fill="#D8DDE8"/>
<path d="M194.652 211.678C196.655 212.189 198.674 212.783 200.684 213.415C200.157 212.848 199.601 212.309 199.018 211.8C198.161 211.091 197.206 210.52 196.281 209.887C196.204 209.842 196.281 209.689 196.349 209.727C198.3 210.534 199.985 211.87 201.212 213.583C203.712 214.383 206.197 215.275 208.582 216.25C210.23 216.923 211.81 217.753 213.299 218.726C212.824 217.69 212.253 216.701 211.594 215.77C210.501 214.353 209.018 213.568 207.588 212.57C207.564 212.55 207.548 212.523 207.542 212.492C207.536 212.462 207.542 212.43 207.558 212.403C207.573 212.377 207.598 212.357 207.628 212.346C207.657 212.336 207.689 212.337 207.718 212.349C209.215 212.996 210.559 213.948 211.665 215.143C212.771 216.338 213.614 217.751 214.14 219.29C215.856 220.518 217.426 221.937 218.819 223.519C224.27 229.691 228.559 237.906 228.575 246.28C228.575 246.478 228.254 246.539 228.215 246.325C226.817 238.113 223.225 230.427 217.818 224.076C217.428 223.618 217.053 223.192 216.625 222.773C215.132 222.569 213.628 222.457 212.122 222.437C210.363 222.437 208.628 222.696 206.877 222.834C204.002 223.07 200.822 223.1 198.23 221.66C198.115 221.599 198.192 221.401 198.322 221.447C204.102 223.542 210.165 220.883 215.967 222.133C213.491 219.781 210.591 217.917 207.42 216.639L206.885 216.425C203.169 216.867 199.239 217.835 195.638 216.631C195.616 216.625 195.597 216.61 195.586 216.59C195.574 216.57 195.571 216.547 195.577 216.524C195.583 216.502 195.598 216.483 195.618 216.472C195.638 216.46 195.662 216.457 195.684 216.463C199.178 217.332 202.565 216.235 205.975 216.06C202.221 214.604 198.398 213.446 194.629 211.998C194.316 211.876 194.308 211.587 194.652 211.678Z" fill="#A8ACB5"/>
<path d="M193.016 215.32C194.806 215.552 196.608 215.689 198.413 215.732C198.459 215.732 198.467 215.793 198.413 215.8C196.596 216.137 194.723 216.019 192.962 215.457C192.886 215.434 192.924 215.305 193.016 215.32Z" fill="#A8ACB5"/>
<path d="M205.218 211.77C206.214 212.218 207.118 212.846 207.886 213.622C207.985 213.705 207.886 213.873 207.748 213.797C207.297 213.469 206.831 213.157 206.364 212.86C205.915 212.608 205.478 212.333 205.057 212.037C204.935 211.938 205.065 211.717 205.218 211.77Z" fill="#A8ACB5"/>
<path d="M234.309 225.104C234.248 225.233 234.439 225.363 234.515 225.218C234.53 225.24 234.549 225.259 234.572 225.273C234.594 225.288 234.619 225.297 234.645 225.302C237.962 226.09 241.325 226.676 244.714 227.054C247.436 227.298 250.578 227.443 252.956 225.873C256.19 223.732 258.308 218.025 256.572 214.398C254.5 210.093 248.277 212.432 245.15 213.964C240.341 216.3 236.505 220.242 234.309 225.104Z" fill="#D8DDE8"/>
<path d="M231.893 227.094C233.704 225.334 235.721 223.799 237.902 222.522C239.47 220.043 241.556 217.93 244.018 216.327C244.133 216.243 244.232 216.433 244.125 216.517C242.177 218.071 240.449 219.881 238.987 221.897C241.415 220.576 243.938 219.435 246.533 218.483C247.458 216.771 248.864 215.365 250.578 214.437C250.616 214.437 250.654 214.437 250.624 214.49C249.208 215.559 247.972 216.845 246.962 218.3C248.491 217.736 250.032 217.2 251.587 216.692C251.732 216.647 251.786 216.86 251.648 216.906C248.896 217.98 246.082 219.108 243.353 220.411C246.681 220.94 250.071 220.94 253.399 220.411C253.491 220.411 253.537 220.525 253.437 220.548C249.966 221.572 246.28 221.627 242.78 220.708C241.044 221.553 239.356 222.494 237.726 223.527C239.099 223.416 240.48 223.529 241.816 223.863C244.17 224.409 246.579 224.681 248.995 224.67C249.087 224.67 249.11 224.823 248.995 224.838C244.829 225.547 240.891 223.665 236.763 224.152C232.188 227.236 228.537 231.496 226.197 236.481C224.461 240.009 223.513 243.743 222.114 247.385C222.1 247.413 222.076 247.435 222.048 247.448C222.019 247.461 221.987 247.463 221.956 247.455C221.926 247.447 221.899 247.429 221.881 247.404C221.862 247.379 221.853 247.348 221.854 247.316C223.054 240.131 226.64 232.214 231.893 227.094Z" fill="#A8ACB5"/>
<path d="M244.454 217.241C244.727 216.752 245.087 216.315 245.516 215.953C245.867 215.576 246.284 215.266 246.747 215.039C246.793 215.039 246.816 215.039 246.786 215.108C246.449 215.489 245.968 215.778 245.601 216.144C245.234 216.51 244.928 216.952 244.546 217.317C244.5 217.371 244.423 217.302 244.454 217.241Z" fill="#A8ACB5"/>
<path d="M251.319 219.473C251.938 219.321 252.596 219.329 253.223 219.199C253.847 219.05 254.462 218.867 255.065 218.65C255.142 218.65 255.188 218.742 255.119 218.788C253.976 219.49 252.632 219.798 251.296 219.664C251.22 219.649 251.227 219.496 251.319 219.473Z" fill="#A8ACB5"/>
<path d="M214.729 238.462L215.271 244.649L217.129 265.542H233.544L235.86 244.649L236.548 238.462H214.729Z" fill="#A8ACB5"/>
<path d="M214.729 238.462L215.271 244.649H235.86L236.548 238.462H214.729Z" fill="#A8ACB5"/>
<path d="M213.093 241.792H238.169V236.77H213.093V241.792Z" fill="#A8ACB5"/>
</svg>
